<svg xmlns="http://www.w3.org/2000/svg" width="133.78" height="80" viewBox="0 0 133.78 80">
  <g id="Amazon_Web_Services_Logo" transform="translate(-1.668 -1.1)">
    <path id="Path_1" data-name="Path 1" d="M46.139,31.452a14.711,14.711,0,0,0,.487,4.137,25.512,25.512,0,0,0,1.418,3.347,2.094,2.094,0,0,1,.31,1.069,1.856,1.856,0,0,1-.842,1.394l-2.792,1.952a2.06,2.06,0,0,1-1.152.418,2,2,0,0,1-1.329-.651,14.328,14.328,0,0,1-1.6-2.185c-.443-.79-.886-1.673-1.374-2.742a16.08,16.08,0,0,1-13.029,6.414,11.819,11.819,0,0,1-8.863-3.347A12.261,12.261,0,0,1,14.1,32.336a12.229,12.229,0,0,1,4.033-9.575c2.7-2.417,6.293-3.626,10.857-3.626a33.483,33.483,0,0,1,4.7.372c1.64.232,3.324.6,5.1,1.023V17.136c0-3.533-.709-6-2.083-7.437-1.418-1.441-3.811-2.138-7.223-2.138a19.27,19.27,0,0,0-4.786.6,34.125,34.125,0,0,0-4.786,1.58,12.34,12.34,0,0,1-1.551.6,2.6,2.6,0,0,1-.709.139c-.62,0-.931-.465-.931-1.441V6.771a3.061,3.061,0,0,1,.31-1.627,3.343,3.343,0,0,1,1.241-.976,24.75,24.75,0,0,1,5.584-2.092,25.682,25.682,0,0,1,6.913-.883c5.273,0,9.129,1.255,11.61,3.765,2.437,2.51,3.678,6.321,3.678,11.434v15.06ZM28.148,38.518a13.76,13.76,0,0,0,4.564-.837,9.863,9.863,0,0,0,4.21-2.975,7.5,7.5,0,0,0,1.507-2.975,17.464,17.464,0,0,0,.443-4.044V25.735a35.461,35.461,0,0,0-4.077-.79,31.857,31.857,0,0,0-4.166-.279c-2.969,0-5.14.6-6.6,1.859a6.625,6.625,0,0,0-2.171,5.345,6.677,6.677,0,0,0,1.64,4.927A5.981,5.981,0,0,0,28.148,38.518Zm35.585,5.02a2.391,2.391,0,0,1-1.684-.465,3.841,3.841,0,0,1-.931-1.813L50.7,5.33a8.486,8.486,0,0,1-.4-1.859c0-.744.355-1.162,1.064-1.162h4.343a2.374,2.374,0,0,1,1.728.465,3.865,3.865,0,0,1,.886,1.813l7.445,30.771L72.684,4.586a3.318,3.318,0,0,1,.842-1.813A2.941,2.941,0,0,1,75.3,2.309h3.545a2.575,2.575,0,0,1,1.773.465,3.188,3.188,0,0,1,.842,1.813l7,31.143L96.126,4.586a4.051,4.051,0,0,1,.886-1.813,2.791,2.791,0,0,1,1.728-.465h4.121c.709,0,1.108.372,1.108,1.162a4.851,4.851,0,0,1-.089.744,6.869,6.869,0,0,1-.31,1.162l-10.68,35.93a3.612,3.612,0,0,1-.931,1.813,2.738,2.738,0,0,1-1.684.465H86.466a2.575,2.575,0,0,1-1.773-.465,3.358,3.358,0,0,1-.842-1.859L76.982,11.279,70.158,41.214a3.7,3.7,0,0,1-.842,1.859,2.651,2.651,0,0,1-1.773.465Zm56.944,1.255a28.024,28.024,0,0,1-6.824-.837,19.55,19.55,0,0,1-5.1-1.859,3.259,3.259,0,0,1-1.374-1.3,3.418,3.418,0,0,1-.266-1.3V37.123c0-.976.355-1.441,1.019-1.441a2.4,2.4,0,0,1,.8.139c.266.093.665.279,1.108.465a23.305,23.305,0,0,0,4.875,1.627,25.417,25.417,0,0,0,5.273.558,11.511,11.511,0,0,0,6.47-1.534,5.067,5.067,0,0,0,2.3-4.416,4.651,4.651,0,0,0-1.2-3.254,10.96,10.96,0,0,0-4.476-2.417l-6.426-2.092a13.478,13.478,0,0,1-7.09-4.741,11.427,11.427,0,0,1-2.216-6.74,10.751,10.751,0,0,1,1.2-5.159,11.8,11.8,0,0,1,3.191-3.811,13.823,13.823,0,0,1,4.609-2.417,18.473,18.473,0,0,1,5.584-.79,21.223,21.223,0,0,1,2.969.186c1.019.139,1.95.325,2.88.511.886.232,1.728.465,2.526.744a9.443,9.443,0,0,1,1.861.837,3.886,3.886,0,0,1,1.329,1.162,2.6,2.6,0,0,1,.4,1.534V8.258c0,.976-.355,1.487-1.019,1.487a4.453,4.453,0,0,1-1.684-.558,19.466,19.466,0,0,0-8.508-1.813A11,11,0,0,0,117,8.676a4.547,4.547,0,0,0-2.083,4.137,4.5,4.5,0,0,0,1.329,3.3,13.027,13.027,0,0,0,4.875,2.556l6.293,2.092c3.191,1.069,5.5,2.556,6.869,4.462a10.863,10.863,0,0,1,2.038,6.507,11.8,11.8,0,0,1-4.387,9.482,14.046,14.046,0,0,1-4.919,2.6A20.166,20.166,0,0,1,120.677,44.793Z" transform="translate(-6.653)" fill="#d5e0d5"/>
    <g id="Group_1" data-name="Group 1" transform="translate(1.668 49.628)">
      <path id="Path_2" data-name="Path 2" d="M122.1,130.557c-14.575,11.295-35.752,17.291-53.96,17.291A95.088,95.088,0,0,1,2.258,121.494c-1.373-1.3-.133-3.068,1.506-2.045a128.093,128.093,0,0,0,65.922,18.36,126.243,126.243,0,0,0,50.283-10.784C122.406,125.863,124.488,128.7,122.1,130.557Z" transform="translate(-1.668 -116.377)" fill="#d5e0d5" fill-rule="evenodd"/>
      <path id="Path_3" data-name="Path 3" d="M265.143,120.122c-1.952-2.51-12.922-1.209-17.9-.6-1.487.186-1.72-1.116-.372-2.092,8.739-6.136,23.1-4.369,24.775-2.324,1.673,2.092-.465,16.454-8.646,23.334-1.255,1.069-2.464.511-1.906-.883C262.959,132.95,267.1,122.585,265.143,120.122Z" transform="translate(-138.4 -113.192)" fill="#d5e0d5" fill-rule="evenodd"/>
    </g>
  </g>
</svg>
