<svg xmlns="http://www.w3.org/2000/svg" width="92.093" height="84.114" viewBox="0 0 92.093 84.114">
  <g id="Atom_editor_logo" transform="translate(-0.175 -0.501)">
    <path id="Path_4" data-name="Path 4" d="M80.031,22.16c1.462-7.442.644-13.09-2.812-15.334a6.875,6.875,0,0,0-4.088-1.017c-8.394.319-21.938,11.876-33,28.917-13.115,20.2-17.776,40.436-10.4,45.224,3.5,2.273,9.077.662,15.377-3.828" transform="translate(-7.251 -0.862)" fill="none" stroke="#d5e0d5" stroke-linecap="round" stroke-width="5"/>
    <path id="Path_5" data-name="Path 5" d="M79.506,64.763c6.225-2.415,10.053-5.72,10.252-9.516.46-8.779-18.646-16.907-42.694-18.167-2.254-.118-4.471-.18-6.64-.173C19.463,36.976,3.1,42.727,2.684,50.683c-.2,3.789,3.253,7.462,9.17,10.511" transform="translate(0 -10.439)" fill="none" stroke="#d5e0d5" stroke-linecap="round" stroke-width="5"/>
    <path id="Path_6" data-name="Path 6" d="M48.812,8.213c-4.259-3.534-8.254-5.431-11.463-5.191a6.19,6.19,0,0,0-2.379.649C27.137,7.662,29.64,28.3,40.572,49.76S66.716,85.371,74.55,81.38c7.533-3.838,5.5-23.073-4.39-43.624" transform="translate(-8.539 0)" fill="none" stroke="#d5e0d5" stroke-linecap="round" stroke-width="5"/>
    <path id="Path_7" data-name="Path 7" d="M68.881,58.691A5.191,5.191,0,1,1,63.691,53.5a5.191,5.191,0,0,1,5.191,5.191Z" transform="translate(-17.189 -15.549)" fill="#d5e0d5" stroke="#d5e0d5" stroke-width="1"/>
  </g>
</svg>
