<svg xmlns="http://www.w3.org/2000/svg" width="21.282" height="20.75" viewBox="0 0 21.282 20.75"><path d="M7.118,17.271c0,.086-.1.154-.223.154-.142.013-.24-.056-.24-.154s.1-.154.223-.154S7.118,17.172,7.118,17.271Zm-1.334-.193c-.03.086.056.185.185.21a.2.2,0,0,0,.266-.086c.026-.086-.056-.185-.185-.223A.22.22,0,0,0,5.784,17.078ZM7.68,17c-.124.03-.21.112-.2.21s.124.142.253.112.21-.112.2-.2S7.8,16.992,7.68,17ZM10.5.563A10.289,10.289,0,0,0,0,11.032,10.757,10.757,0,0,0,7.273,21.3c.549.1.742-.24.742-.519S8,19.043,8,18.142c0,0-3,.644-3.634-1.279,0,0-.489-1.249-1.193-1.57,0,0-.983-.674.069-.661A2.265,2.265,0,0,1,4.9,15.739a2.268,2.268,0,0,0,3.128.9,2.385,2.385,0,0,1,.687-1.446c-2.4-.266-4.819-.614-4.819-4.741A3.252,3.252,0,0,1,4.909,7.921,4.054,4.054,0,0,1,5.02,5.008c.9-.279,2.961,1.159,2.961,1.159a10.137,10.137,0,0,1,5.389,0s2.064-1.442,2.961-1.159a4.052,4.052,0,0,1,.112,2.913,3.335,3.335,0,0,1,1.107,2.527c0,4.141-2.527,4.471-4.926,4.741a2.537,2.537,0,0,1,.729,1.991c0,1.446-.013,3.235-.013,3.587,0,.279.2.618.742.519a10.658,10.658,0,0,0,7.2-10.255A10.521,10.521,0,0,0,10.5.563Zm-6.333,14.8c-.056.043-.043.142.03.223s.167.1.223.043.043-.142-.03-.223S4.226,15.306,4.171,15.361Zm-.463-.348c-.03.056.013.124.1.167a.128.128,0,0,0,.185-.03c.03-.056-.013-.124-.1-.167C3.806,14.958,3.737,14.971,3.707,15.014ZM5.1,16.541c-.069.056-.043.185.056.266.1.1.223.112.279.043s.03-.185-.056-.266C5.282,16.486,5.153,16.473,5.1,16.541Zm-.489-.631c-.069.043-.069.154,0,.253s.185.142.24.1a.2.2,0,0,0,0-.266C4.789,15.9,4.677,15.855,4.608,15.911Z" transform="translate(0 -0.563)"/></svg>