<svg xmlns="http://www.w3.org/2000/svg" width="25.5" height="20.75" viewBox="0 0 25.5 20.75"><path d="M26.914,6.959a10.577,10.577,0,0,1-3,.827,5.25,5.25,0,0,0,2.3-2.9,10.4,10.4,0,0,1-3.323,1.27,5.23,5.23,0,0,0-9.051,3.577,5.122,5.122,0,0,0,.135,1.194A14.826,14.826,0,0,1,3.186,5.456a5.242,5.242,0,0,0,1.627,6.992A5.11,5.11,0,0,1,2.435,11.8v.065a5.236,5.236,0,0,0,4.2,5.134,5.266,5.266,0,0,1-1.378.184,4.936,4.936,0,0,1-.983-.1,5.24,5.24,0,0,0,4.89,3.637,10.489,10.489,0,0,1-6.5,2.243,10.6,10.6,0,0,1-1.248-.076A14.624,14.624,0,0,0,9.422,25.25a14.8,14.8,0,0,0,14.9-14.9c0-.227-.005-.454-.016-.675A10.65,10.65,0,0,0,26.914,6.959Z" transform="translate(-1.413 -4.5)" fill="#42abf7"/></svg>