<svg xmlns="http://www.w3.org/2000/svg" width="20.751" height="20.75" viewBox="0 0 20.751 20.75"><path d="M23.591,4.5H6.273A1.693,1.693,0,0,0,4.5,6.116V23.472A1.826,1.826,0,0,0,6.273,25.25H23.586a1.733,1.733,0,0,0,1.665-1.778V6.116A1.591,1.591,0,0,0,23.591,4.5ZM10.932,21.8H7.959V12.554h2.973ZM9.548,11.148H9.527A1.526,1.526,0,0,1,7.959,9.554,1.535,1.535,0,0,1,9.565,7.959a1.531,1.531,0,0,1,1.589,1.595A1.535,1.535,0,0,1,9.548,11.148ZM21.8,21.8H18.824V16.743c0-1.211-.432-2.038-1.508-2.038a1.627,1.627,0,0,0-1.524,1.1,2,2,0,0,0-.1.73V21.8H12.716V12.554h2.973V13.84a3.009,3.009,0,0,1,2.681-1.5c1.951,0,3.427,1.286,3.427,4.059v5.4Z" transform="translate(-4.5 -4.5)" fill="#2871cd"/></svg>