<svg xmlns="http://www.w3.org/2000/svg" width="20.75" height="20.75" viewBox="0 0 20.75 20.75"><g transform="translate(-4.5 -4.5)"><path d="M19.2,6.229a4.336,4.336,0,0,1,4.323,4.323V19.2A4.336,4.336,0,0,1,19.2,23.521H10.552A4.336,4.336,0,0,1,6.229,19.2V10.552a4.336,4.336,0,0,1,4.323-4.323H19.2m0-1.729H10.552A6.07,6.07,0,0,0,4.5,10.552V19.2a6.07,6.07,0,0,0,6.052,6.052H19.2A6.07,6.07,0,0,0,25.25,19.2V10.552A6.07,6.07,0,0,0,19.2,4.5Z" fill="#e94a1a"/><path d="M24.922,11.594a1.3,1.3,0,1,1,1.3-1.3A1.294,1.294,0,0,1,24.922,11.594Z" transform="translate(-4.427 -1.042)" fill="#e94a1a"/><path d="M16.438,12.979a3.458,3.458,0,1,1-3.458,3.458,3.462,3.462,0,0,1,3.458-3.458m0-1.729a5.188,5.188,0,1,0,5.188,5.188,5.189,5.189,0,0,0-5.188-5.188Z" transform="translate(-1.562 -1.562)" fill="#e94a1a"/></g></svg>