<svg xmlns="http://www.w3.org/2000/svg" width="76.878" height="76.876" viewBox="0 0 76.878 76.876"><path d="M75.427,67.018,41.87,33.453a4.954,4.954,0,0,0-7,0L27.89,40.425l8.841,8.841a5.883,5.883,0,0,1,7.446,7.5L52.7,65.283a5.893,5.893,0,0,1,6.087,9.728c-4.546,4.546-12.048-.492-9.61-6.408L41.222,60.66V81.57c4.342,2.152,3.82,7.182,1.558,9.438a5.888,5.888,0,1,1-6.4-9.61V60.291a5.886,5.886,0,0,1-3.2-7.722l-8.716-8.726L1.449,66.862a4.952,4.952,0,0,0,0,7L35.016,107.43a4.952,4.952,0,0,0,7,0L75.427,74.021a4.952,4.952,0,0,0,0-7Z" transform="translate(0.001 -32.003)" fill="#e95a31"/></svg>