<svg version="1.2" xmlns="http://www.w3.org/2000/svg" viewBox="0 0 95 95" width="95" height="95">
	<title>New Project</title>
	<style>
		.s0 { fill: #d5e0d5 } 
	</style>
	<path id="git-alt-brands" class="s0" d="m84.1 51.6l-33.4 33.4c-1.9 1.9-5.1 1.9-7 0l-33.6-33.6c-1.9-1.9-1.9-5 0-7l23.1-23l8.7 8.7c-1 2.5-0.4 6.3 3.2 7.7v21.2c-3.9 1.5-5 6.5-2 9.6c2.3 2.3 6.1 2.3 8.4 0c2.2-2.3 2.8-7.3-1.6-9.5v-20.9l8 8c-2.5 5.9 5 10.9 9.6 6.4c4.4-4.4-0.2-11.8-6.1-9.8l-8.5-8.5c1.6-4.6-2.8-9-7.5-7.5l-8.8-8.8l7-7c1.9-1.9 5-1.9 7 0l33.5 33.6c2 1.9 2 5 0 7z" />
</svg>