<svg version="1.2" xmlns="http://www.w3.org/2000/svg" viewBox="0 0 95 95" width="95" height="95">
	<title>New Project</title>
	<style>
		.s0 { fill: #d5e0d5 } 
	</style>
	<path id="github-brands" fill-rule="evenodd" class="s0" d="m87.7 47.4c0 17.8-11 33.1-27 38.4c-2.1 0.4-2.8-0.9-2.8-1.9c0-1.4 0-8.1 0-13.5c0-3.8-1.2-6.2-2.7-7.5c9-1 18.5-2.2 18.5-17.7c0-4.4-1.6-6.7-4.2-9.5c0.4-1.1 1.8-5.4-0.4-10.9c-3.4-1.1-11.1 4.3-11.1 4.3c-3.2-0.9-6.7-1.4-10.1-1.4c-3.4 0-6.9 0.5-10.1 1.4c0 0-7.8-5.4-11.1-4.3c-2.2 5.5-0.9 9.8-0.4 10.9c-2.6 2.8-3.8 5-3.8 9.5c0 15.4 9 16.7 18 17.7c-1.1 1.1-2.2 2.9-2.6 5.5c-2.3 1-8.2 2.8-11.7-3.4c-2.2-3.8-6.2-4.1-6.2-4.1c-3.9-0.1-0.3 2.4-0.3 2.4c2.7 1.2 4.5 5.9 4.5 5.9c2.4 7.2 13.7 4.8 13.7 4.8c0 3.4 0 8.9 0 9.9c0 1-0.7 2.3-2.8 1.9c-16-5.3-27.3-20.6-27.3-38.4c0-22.4 17.1-39.3 39.4-39.3c22.4 0 40.5 16.9 40.5 39.3zm-57.2 22.3c0.5 0.1 0.8 0.5 0.7 0.8c-0.1 0.3-0.6 0.5-1 0.3c-0.5-0.1-0.8-0.5-0.7-0.8c0.1-0.3 0.6-0.5 1-0.3zm7.1 0.5c0 0.3-0.3 0.6-0.7 0.8c-0.5 0.1-0.9-0.1-1-0.5c0-0.3 0.3-0.6 0.7-0.7c0.5-0.1 0.9 0.1 1 0.4zm-3.1 0.6c0 0.3-0.3 0.5-0.8 0.5c-0.5 0.1-0.9-0.2-0.9-0.5c0-0.4 0.4-0.6 0.8-0.6c0.5-0.1 0.9 0.2 0.9 0.6zm-10.2-7c0.3 0.3 0.3 0.6 0.1 0.8c-0.2 0.2-0.5 0.1-0.8-0.2c-0.3-0.3-0.3-0.6-0.1-0.8c0.2-0.2 0.6-0.1 0.8 0.2zm-1.9-1.6c0.4 0.1 0.5 0.4 0.4 0.6c-0.1 0.2-0.4 0.3-0.7 0.1c-0.3-0.1-0.5-0.4-0.4-0.6c0.2-0.2 0.4-0.2 0.7-0.1zm5.6 6c0.3 0.3 0.4 0.8 0.2 1c-0.2 0.2-0.7 0.2-1-0.2c-0.4-0.3-0.5-0.8-0.2-1c0.2-0.2 0.7-0.2 1 0.2zm-2-2.2c0.3 0.3 0.3 0.8 0 1c-0.2 0.1-0.6 0-0.9-0.4c-0.2-0.4-0.2-0.8 0-0.9c0.3-0.3 0.7-0.1 0.9 0.3z" />
</svg>