<svg xmlns="http://www.w3.org/2000/svg" width="79.817" height="77.822" viewBox="0 0 79.817 77.822"><path d="M26.7,70.662c0,.322-.37.579-.837.579-.531.048-.9-.209-.9-.579,0-.322.37-.579.837-.579C26.278,70.035,26.7,70.292,26.7,70.662Zm-5-.724c-.113.322.209.692.692.789a.755.755,0,0,0,1-.322c.1-.322-.209-.692-.692-.837A.826.826,0,0,0,21.692,69.938Zm7.113-.274c-.467.113-.789.418-.74.789.048.322.467.531.949.418.467-.113.789-.418.74-.74C29.706,69.826,29.271,69.616,28.8,69.665ZM39.393,8C17.074,8,0,24.945,0,47.265A40.344,40.344,0,0,0,27.276,85.757c2.06.37,2.784-.9,2.784-1.947,0-1-.048-6.5-.048-9.881,0,0-11.264,2.414-13.63-4.8,0,0-1.834-4.683-4.474-5.89,0,0-3.685-2.526.257-2.478a8.494,8.494,0,0,1,6.212,4.152c3.524,6.212,9.43,4.425,11.731,3.363a8.944,8.944,0,0,1,2.575-5.423c-9-1-18.071-2.3-18.071-17.782,0-4.425,1.223-6.646,3.8-9.478a15.2,15.2,0,0,1,.418-10.927c3.363-1.046,11.1,4.345,11.1,4.345a38.016,38.016,0,0,1,20.212,0s7.74-5.407,11.1-4.345A15.2,15.2,0,0,1,61.665,35.6c2.575,2.848,4.152,5.069,4.152,9.478,0,15.529-9.478,16.768-18.474,17.782,1.48,1.271,2.736,3.685,2.736,7.467,0,5.423-.048,12.133-.048,13.453,0,1.046.74,2.317,2.784,1.947,16.092-5.343,27-20.614,27-38.46C79.817,24.945,61.713,8,39.393,8ZM15.641,63.5c-.209.161-.161.531.113.837.257.257.628.37.837.161.209-.161.161-.531-.113-.837C16.221,63.4,15.851,63.292,15.641,63.5ZM13.9,62.2c-.113.209.048.467.37.628a.479.479,0,0,0,.692-.113c.113-.209-.048-.467-.37-.628C14.274,61.989,14.016,62.037,13.9,62.2Zm5.214,5.729c-.257.209-.161.692.209,1,.37.37.837.418,1.046.161.209-.209.113-.692-.209-1C19.809,67.718,19.327,67.669,19.117,67.927Zm-1.834-2.366c-.257.161-.257.579,0,.949s.692.531.9.37a.734.734,0,0,0,0-1c-.225-.37-.644-.531-.9-.322Z" transform="translate(0 -8)" fill="#171515"/></svg>