<svg xmlns="http://www.w3.org/2000/svg" width="77.375" height="80" viewBox="0 0 77.375 80">
  <g id="Group_6" data-name="Group 6" transform="translate(-1908.694 -167.463)">
    <path id="path8005" d="M76.449,37.76,42.023,3.334,38.686,0,.926,37.76a3.169,3.169,0,0,0,0,4.477L24.6,65.912,38.686,80,76.449,42.237a3.167,3.167,0,0,0,0-4.477ZM38.686,51.825,26.861,40,38.686,28.172,50.514,40Z" transform="translate(1908.694 167.463)" fill="#d5e0d5"/>
    <path id="path8015" d="M46.69,30.179A21.308,21.308,0,0,1,46.6.138L18.911,27.817,33.983,42.889Z" transform="translate(1902.055 167.425)" fill="#d5e0d5"/>
    <path id="path8025" d="M70.2,59.414,57.51,72.1a21.3,21.3,0,0,1,0,30.144L85.267,74.486,70.2,59.414Z" transform="translate(1888.506 145.219)" fill="#d5e0d5"/>
  </g>
</svg>
