<svg xmlns="http://www.w3.org/2000/svg" width="81.205" height="77.822" viewBox="0 0 81.205 77.822"><g transform="translate(0 -0.5)"><path d="M4.757,46.224a5,5,0,0,0,.261.5,2.855,2.855,0,0,0,.159.281c.088.176.183.345.274.514l.531.893c.1.166.193.328.3.491.186.318.406.629.6.947.088.132.169.264.267.4.372.579.711,1.059,1.073,1.526.257.349.514.69.792,1.032.091.129.193.257.288.386l.748.907c.091.1.183.227.281.335.332.4.683.785,1.035,1.177,0,.007.01.014.017.024A10.265,10.265,0,0,0,12.806,57.1l.014.014c.271.277.541.552.829.822l.342.328c.376.352.751.7,1.147,1.039.007,0,.01.007.017.01l.193.169c.345.3.694.6,1.049.876l.423.355c.288.23.585.447.88.673l.46.352c.315.237.65.467.971.7.118.085.237.169.359.247l.1.078.951.623.406.271c.5.318.991.616,1.485.914.142.071.284.149.416.23.365.21.744.423,1.113.616.2.115.413.213.623.318.254.142.518.281.788.423a1.035,1.035,0,0,1,.2.081l.014-.014c.112.051.217.1.325.159.406.2.829.4,1.269.585a2.759,2.759,0,0,1,.257.115c.487.213.974.416,1.479.612.115.034.237.091.355.135.457.173.927.349,1.394.514l.169.061c.518.176,1.029.345,1.556.5.122.034.247.078.376.112a15.35,15.35,0,0,0,1.6.457c34.759,6.3,44.859-20.8,44.859-20.8-8.486,11-23.546,13.9-37.808,10.668-.528-.122-1.056-.291-1.59-.447q-1.132-.32-2.243-.707l.321.1-.21-.081c-.46-.156-.9-.328-1.353-.5q-.165-.07-.335-.129l-.037-.01c-.5-.2-.981-.4-1.462-.616-.1-.034-.193-.081-.3-.122q-.854-.372-1.692-.778l.467.206q-.183-.081-.359-.176c-.318-.149-.636-.318-.947-.477q-.356-.169-.7-.359l.068.034c-.382-.2-.765-.423-1.15-.629-.115-.081-.247-.149-.379-.223q-.86-.5-1.7-1.035l.213.129q-.215-.133-.42-.281l.02.014q-.545-.335-1.069-.7c-.115-.074-.22-.156-.338-.237q-.547-.373-1.076-.771l.081.058c-.142-.115-.294-.223-.447-.335-.3-.233-.6-.457-.9-.7l-.4-.318q-.638-.508-1.252-1.046l0,0-1.174-1.066-.338-.318c-.277-.281-.562-.548-.846-.826l-.328-.338q-.525-.52-1.025-1.066l-.02-.024-.058-.047q-.537-.59-1.059-1.194c-.091-.1-.176-.217-.271-.328l-.768-.93q-.519-.652-1.015-1.323l-.135-.189C7.281,30.809,4.418,15.978,10.749,3.811l-5.59,7.068c-7.19,10.283-6.3,23.655-.8,34.573.125.267.264.518.4.771Z" transform="translate(0 7.892)" fill="#2673b7"/><path d="M8.611,12.035l-.037-.054-.03-.041Z" transform="translate(20.362 27.268)" fill="#2673b7"/><path d="M16.157,41.185l.3.3c.386.372.782.734,1.184,1.1l.051.044c.406.359.863.734,1.333,1.1l.071.054c.115.078.213.169.325.247.474.365.951.714,1.448,1.062l.051.03c.21.152.433.291.67.44.095.061.2.142.3.2.359.23.711.443,1.073.663.058.024.108.054.162.078.3.186.636.365.954.528.112.068.22.118.335.183.227.112.45.23.667.345l.108.047c.457.223.924.433,1.38.639.115.044.213.081.311.129.376.162.758.318,1.133.46.169.058.328.125.487.176.345.129.707.247,1.049.365l.474.152a10.862,10.862,0,0,0,1.519.433c26.842,4.419,33.054-16.143,33.054-16.143-5.593,8.009-16.417,11.826-27.952,8.845q-.864-.218-1.712-.491l.193.054c-.162-.044-.3-.095-.46-.142-.352-.122-.714-.24-1.056-.365l-.487-.183c-.379-.152-.765-.294-1.134-.457-.115-.051-.22-.085-.308-.135-.474-.213-.951-.423-1.414-.646l-.7-.362-.4-.2c-.311-.162-.6-.332-.9-.5a1.888,1.888,0,0,1-.22-.122l.01,0c-.359-.223-.731-.44-1.076-.667-.115-.064-.22-.142-.328-.21l-.7-.457c-.487-.338-.964-.7-1.448-1.052-.108-.1-.213-.179-.318-.267a32.067,32.067,0,0,1-10.97-15.534A24.013,24.013,0,0,1,15.121,1.573L10.875,7.555c-5.214,7.447-4.92,17.4-.859,25.279a30.4,30.4,0,0,0,2.321,3.854,17.724,17.724,0,0,0,2.653,3.282c.365.416.758.812,1.167,1.215Z" transform="translate(16.599 2.558)" fill="#2673b7"/><path d="M2.462,19.765l-.014-.02-.024-.03Zm14.069-2.517.034.024.007.01Z" transform="translate(5.78 39.92)" fill="#2673b7"/><path d="M15.51,3.637a15.493,15.493,0,0,0-1.252,15.016A21.256,21.256,0,0,0,26.466,29.995c.22.085.433.156.66.237l.3.091c.311.1.626.213.947.284,14.823,2.846,18.836-7.572,19.916-9.105-3.529,5.042-9.447,6.253-16.708,4.5a16.082,16.082,0,0,1-1.861-.575l.112.037a20.965,20.965,0,0,1-2.22-.914l.129.058a21.831,21.831,0,0,1-3.685-2.247C17.563,17.452,13.55,8.11,17.787.5Z" transform="translate(30.73)" fill="#2673b7"/></g></svg>