<svg version="1.2" xmlns="http://www.w3.org/2000/svg" viewBox="0 0 95 95" width="95" height="95">
	<title>New Project</title>
	<style>
		.s0 { fill: #d5e0d5 } 
	</style>
	<path id="Path 8" fill-rule="evenodd" class="s0" d="m11.2 61.9c-5.5-10.9-6.4-24.3 0.8-34.5l5.6-7.1c-6.4 12.2-3.5 27 4.4 37.7l0.2 0.2q0.4 0.7 1 1.3l0.7 1q0.2 0.1 0.3 0.3q0.5 0.6 1.1 1.2v0.1q0.5 0.5 1.1 1l0.3 0.4q0.4 0.4 0.8 0.8l0.4 0.3l1.2 1.1q0.6 0.5 1.2 1l0.4 0.4q0.5 0.3 0.9 0.7q0.2 0.1 0.5 0.3l-0.1-0.1q0.5 0.4 1 0.8q0.2 0.1 0.4 0.2q0.5 0.4 1 0.7q0.2 0.2 0.5 0.3l-0.3-0.1q0.9 0.5 1.7 1q0.2 0.1 0.4 0.2q0.6 0.4 1.2 0.7l-0.1-0.1q0.3 0.2 0.7 0.4q0.5 0.2 0.9 0.5q0.2 0.1 0.4 0.1l-0.5-0.2q0.9 0.4 1.7 0.8q0.2 0.1 0.3 0.1q0.7 0.4 1.5 0.7q0.2 0 0.4 0.1q0.6 0.3 1.3 0.5l0.2 0.1l-0.3-0.1q1.1 0.4 2.2 0.7q0.8 0.2 1.6 0.4c14.3 3.3 29.4 0.4 37.8-10.6c0 0-10.1 27.1-44.8 20.8c-0.6-0.1-1.1-0.3-1.6-0.5q-0.2-0.1-0.4-0.1q-0.8-0.2-1.5-0.5l-0.2-0.1q-0.7-0.2-1.4-0.5q-0.2-0.1-0.4-0.1q-0.7-0.3-1.4-0.6q-0.2-0.1-0.3-0.2q-0.7-0.2-1.3-0.5q-0.1-0.1-0.3-0.2q-0.1 0-0.2-0.1q-0.4-0.2-0.8-0.4q-0.3-0.1-0.6-0.3q-0.6-0.3-1.1-0.6q-0.2-0.1-0.4-0.2q-0.8-0.5-1.5-1l-0.4-0.2l-1-0.7h-0.1q-0.2-0.2-0.3-0.3q-0.5-0.3-1-0.7l-0.5-0.3q-0.4-0.4-0.9-0.7l-0.4-0.4q-0.5-0.4-1-0.8l-0.2-0.2q0 0 0 0q-0.6-0.5-1.2-1.1l-0.3-0.3q-0.5-0.4-0.9-0.8q-0.7-0.7-1.4-1.5q0 0 0 0q-0.5-0.6-1-1.2q-0.2-0.2-0.3-0.3l-0.8-0.9q-0.1-0.2-0.3-0.4q-0.4-0.5-0.8-1c-0.3-0.5-0.7-1-1-1.6q-0.2-0.2-0.3-0.4q-0.3-0.4-0.6-0.9q-0.2-0.3-0.3-0.5l-0.5-0.9q-0.2-0.3-0.3-0.5q-0.1-0.1-0.2-0.3q-0.1-0.2-0.2-0.5q-0.2-0.4-0.4-0.8zm23.2 7.8h0.1q-0.1 0-0.1 0q0 0 0 0zm1.3-21.9h0.1v0.1zm2.7 3.3c-1-0.9-1.9-2.2-2.7-3.3c-0.8-1.1-1.6-2.4-2.3-3.8c-4.1-7.9-4.3-17.9 0.9-25.3l4.2-6c-3.4 5.8-3.9 13-1.9 19.4c1.9 6.1 5.9 11.5 11 15.5q0.1 0.1 0.3 0.3q0.7 0.5 1.5 1l0.7 0.5q0.1 0.1 0.3 0.2q0.5 0.3 1.1 0.7q0.1 0 0.2 0.1q0.4 0.2 0.9 0.5l0.4 0.2l0.7 0.3q0.7 0.4 1.4 0.7q0.1 0.1 0.3 0.1q0.5 0.3 1.1 0.5l0.5 0.2q0.5 0.1 1.1 0.3q0.2 0.1 0.4 0.2l-0.2-0.1q0.9 0.3 1.7 0.5c11.6 3 22.4-0.8 28-8.8c0 0-6.2 20.5-33.1 16.1c-0.5-0.1-1-0.3-1.5-0.4l-0.5-0.2q-0.5-0.2-1-0.3q-0.2-0.1-0.5-0.2q-0.6-0.2-1.1-0.5q-0.2 0-0.3-0.1q-0.7-0.3-1.4-0.6l-0.1-0.1q-0.3-0.2-0.7-0.3q-0.2-0.1-0.3-0.2q-0.5-0.3-1-0.6q-0.1 0-0.1 0q-0.6-0.4-1.1-0.7q-0.2-0.1-0.3-0.2q-0.4-0.2-0.7-0.4v-0.1q-0.8-0.5-1.5-1q-0.1-0.2-0.3-0.3h-0.1q-0.7-0.6-1.3-1.1l-0.1-0.1q-0.6-0.5-1.1-1.1l-0.4-0.3q-0.6-0.6-1.1-1.2zm20.1 2.3q0 0 0 0zm-29.5 12.3l0.1 0.1zm26.2-56.7c-4.3 7.6-0.2 17 6.2 21.9c1.2 0.8 2.3 1.5 3.7 2.2l-0.1-0.1q1.1 0.6 2.2 1l-0.1-0.1q0.9 0.4 1.9 0.6c7.2 1.8 13.1 0.5 16.7-4.5c-1.1 1.6-5.1 11.9-19.9 9.1q-0.5-0.1-1-0.3l-0.3-0.1q-0.3-0.1-0.6-0.2c-5.4-2-10-6.1-12.2-11.3c-2.2-5-1.9-10.6 1.2-15.1zm30.5 21q0 0 0 0q0 0 0 0z" />
</svg>