<svg xmlns="http://www.w3.org/2000/svg" width="79.713" height="79.713" viewBox="0 0 79.713 79.713"><path d="M71.172,32H8.541A8.543,8.543,0,0,0,0,40.541v62.631a8.543,8.543,0,0,0,8.541,8.541H71.172a8.543,8.543,0,0,0,8.541-8.541V40.541A8.543,8.543,0,0,0,71.172,32ZM43.379,94.169c0,7.758-4.555,11.3-11.192,11.3-6,0-9.466-3.1-11.245-6.85l6.1-3.683c1.174,2.082,2.242,3.843,4.822,3.843,2.455,0,4.021-.961,4.021-4.715V68.6h7.491V94.169Zm17.722,11.3c-6.957,0-11.459-3.309-13.647-7.651l6.1-3.523c1.6,2.616,3.7,4.555,7.384,4.555,3.1,0,5.089-1.548,5.089-3.7,0-2.562-2.028-3.47-5.462-4.982l-1.868-.8c-5.409-2.3-8.985-5.2-8.985-11.3,0-5.623,4.288-9.893,10.96-9.893,4.769,0,8.185,1.655,10.64,6l-5.836,3.737c-1.281-2.3-2.669-3.2-4.822-3.2a3.251,3.251,0,0,0-3.576,3.2c0,2.242,1.388,3.149,4.608,4.555l1.868.8c6.37,2.722,9.946,5.516,9.946,11.779C73.5,101.766,68.2,105.467,61.1,105.467Z" transform="translate(0 -32)" fill="#f7e230"/></svg>