<svg version="1.2" xmlns="http://www.w3.org/2000/svg" viewBox="0 0 95 95" width="95" height="95">
	<title>New Project</title>
	<style>
		.s0 { fill: #d5e0d5 } 
	</style>
	<path id="js-square-brands" fill-rule="evenodd" class="s0" d="m87.3 16.7v62.6c0 4.7-3.8 8.6-8.6 8.6h-62.6c-4.7 0-8.5-3.9-8.5-8.6v-62.6c0-4.7 3.8-8.6 8.5-8.6h62.6c4.8 0 8.6 3.9 8.6 8.6zm-36.4 28h-7.4v25.5c0 3.8-1.6 4.7-4.1 4.7c-2.5 0-3.6-1.7-4.8-3.8l-6.1 3.7c1.8 3.7 5.3 6.8 11.3 6.8c6.6 0 11.1-3.5 11.1-11.3zm30.2 26.5c0-6.3-3.6-9.1-10-11.8l-1.8-0.8c-3.3-1.4-4.7-2.3-4.7-4.6c0-1.8 1.4-3.2 3.6-3.2c2.2 0 3.6 0.9 4.8 3.2l5.9-3.7c-2.5-4.4-5.9-6-10.7-6c-6.6 0-10.9 4.3-10.9 9.9c0 6.1 3.6 9 9 11.3l1.8 0.8c3.5 1.5 5.5 2.4 5.5 5c0 2.1-2 3.7-5.1 3.7c-3.7 0-5.8-2-7.4-4.6l-6.1 3.5c2.2 4.4 6.7 7.7 13.7 7.7c7.1 0 12.4-3.7 12.4-10.4z" />
</svg>