<svg xmlns="http://www.w3.org/2000/svg" width="29.998" height="30" viewBox="0 0 29.998 30"><path d="M15,9.372A5.625,5.625,0,1,0,20.621,15,5.625,5.625,0,0,0,15,9.372Zm14.437,4.715-5.548-2.772,1.963-5.882a1.013,1.013,0,0,0-1.283-1.28L18.682,6.115,15.905.561a1.014,1.014,0,0,0-1.818,0L11.315,6.109,5.429,4.146A1.013,1.013,0,0,0,4.146,5.429l1.963,5.882L.561,14.087a1.014,1.014,0,0,0,0,1.818l5.548,2.772L4.146,24.564a1.013,1.013,0,0,0,1.283,1.283l5.882-1.963,2.772,5.548a1.014,1.014,0,0,0,1.818,0l2.772-5.548,5.882,1.963a1.013,1.013,0,0,0,1.283-1.283l-1.967-5.882,5.548-2.772a1.016,1.016,0,0,0,.012-1.822ZM20.3,20.3a7.5,7.5,0,1,1,0-10.6,7.5,7.5,0,0,1,0,10.6Z" transform="translate(0.003 0.003)" fill="#c3c3c3"/></svg>