<svg xmlns="http://www.w3.org/2000/svg" width="2.452" height="2.407" viewBox="0 0 2.452 2.407">
  <path id="Path_33" data-name="Path 33" d="M6.694,3.547a.771.771,0,0,0-.324.047c-.025.01-.065.01-.068.042.013.013.015.035.027.053a.389.389,0,0,0,.087.1c.035.027.07.053.107.077.065.04.138.063.2.1.037.023.073.053.11.078.019.013.03.035.053.043V4.087c-.012-.015-.015-.037-.027-.053l-.05-.048a.789.789,0,0,0-.173-.168c-.053-.037-.17-.087-.192-.148l0,0a.682.682,0,0,0,.115-.027c.057-.015.108-.012.167-.027.027-.007.053-.015.08-.023V3.574c-.03-.03-.052-.07-.083-.1a2.223,2.223,0,0,0-.275-.205c-.052-.033-.118-.055-.173-.083-.02-.01-.053-.015-.065-.032a.668.668,0,0,1-.068-.128c-.048-.092-.1-.193-.137-.29a1.79,1.79,0,0,0-.085-.19,1.681,1.681,0,0,0-.645-.624.8.8,0,0,0-.213-.068l-.125-.007a.658.658,0,0,1-.077-.058c-.1-.06-.34-.19-.41-.018-.045.108.067.215.1.27a.788.788,0,0,1,.085.125c.011.028.015.058.027.088a2,2,0,0,0,.087.224.844.844,0,0,0,.062.1c.013.018.037.027.042.057a.476.476,0,0,0-.038.125.734.734,0,0,0,.048.56c.027.042.09.133.175.1s.058-.125.08-.208c.005-.02,0-.033.012-.047v0l.068.138a.954.954,0,0,0,.217.224c.04.03.072.082.122.1V3.627h0a.186.186,0,0,0-.038-.033.812.812,0,0,1-.087-.1,2.15,2.15,0,0,1-.187-.3c-.027-.052-.05-.108-.072-.16-.01-.02-.01-.05-.027-.06a.63.63,0,0,0-.08.113A.939.939,0,0,0,5,3.335c-.007,0,0,0-.007,0-.053-.013-.072-.068-.092-.115a.722.722,0,0,1-.015-.445c.012-.035.062-.145.042-.178s-.043-.05-.062-.075a.674.674,0,0,1-.06-.107c-.04-.093-.06-.2-.1-.29A.891.891,0,0,0,4.616,2a.828.828,0,0,1-.092-.13c-.008-.018-.02-.048-.007-.068a.027.027,0,0,1,.023-.022c.022-.018.083.005.105.015a.855.855,0,0,1,.165.083c.023.017.048.048.078.057h.035c.053.012.113,0,.163.018a1.068,1.068,0,0,1,.24.115l.193.146.327.424c.02.038.028.073.047.113.035.082.078.165.113.245a1.1,1.1,0,0,0,.118.224c.025.035.125.053.17.072a1.183,1.183,0,0,1,.115.047c.057.035.113.075.167.113.027.02.11.062.115.095ZM4.993,2.1a.265.265,0,0,0-.068.008v0h0a.538.538,0,0,0,.053.068l.038.08,0,0a.094.094,0,0,0,.035-.083.371.371,0,0,1-.02-.035c-.01-.017-.032-.025-.045-.038Z" transform="translate(-4.436 -1.685)" fill="#d5e0d5" fill-rule="evenodd"/>
</svg>
