<svg xmlns="http://www.w3.org/2000/svg" width="86.979" height="80.182" viewBox="0 0 86.979 80.182">
  <g id="Group_7" data-name="Group 7" transform="translate(-2339.273 -203.41)">
    <path id="Path_20" data-name="Path 20" d="M205.85,242.089a6.184,6.184,0,0,1-3.082-.824l-9.809-5.807c-1.465-.819-.75-1.109-.267-1.276a19.8,19.8,0,0,0,4.435-2.023.745.745,0,0,1,.73.051l7.536,4.472a.994.994,0,0,0,.911,0l29.382-16.96a.926.926,0,0,0,.449-.794v-33.9a.943.943,0,0,0-.455-.809L206.31,167.27a.9.9,0,0,0-.9,0l-29.364,16.945a.936.936,0,0,0-.466.8v33.9a.905.905,0,0,0,.456.787l8.046,4.648c4.369,2.184,7.038-.39,7.038-2.979V187.914a.838.838,0,0,1,.853-.846h3.721a.841.841,0,0,1,.846.846v33.478c0,5.825-3.177,9.171-8.7,9.171-1.7,0-3.037,0-6.774-1.839l-7.708-4.442a6.213,6.213,0,0,1-3.082-5.361v-33.9a6.174,6.174,0,0,1,3.082-5.354L202.765,162.7a6.443,6.443,0,0,1,6.178,0l29.374,16.974a6.2,6.2,0,0,1,3.082,5.354v33.9a6.216,6.216,0,0,1-3.082,5.354L208.943,241.25a6.175,6.175,0,0,1-3.1.824" transform="translate(2169 41.503)" fill="#d5e0d5"/>
    <path id="Path_21" data-name="Path 21" d="M225.393,224.349c-12.856,0-15.551-5.9-15.551-10.851a.845.845,0,0,1,.851-.846h3.795a.85.85,0,0,1,.838.719c.574,3.867,2.28,5.817,10.054,5.817,6.193,0,8.826-1.4,8.826-4.683,0-1.89-.75-3.295-10.37-4.236-8.046-.794-13.018-2.567-13.018-9,0-5.928,5-9.458,13.378-9.458,9.406,0,14.069,3.265,14.658,10.282a.856.856,0,0,1-.228.655.875.875,0,0,1-.625.272h-3.817a.843.843,0,0,1-.824-.662c-.919-4.067-3.14-5.369-9.179-5.369-6.759,0-7.546,2.353-7.546,4.119,0,2.14.927,2.765,10.046,3.971,9.031,1.2,13.319,2.89,13.319,9.237,0,6.4-5.339,10.068-14.65,10.068m35.787-35.957h.986a.856.856,0,0,0,.963-.9c0-.868-.6-.868-.927-.868h-1.015Zm-1.2-2.78h2.184c.75,0,2.221,0,2.221,1.677a1.46,1.46,0,0,1-1.2,1.559c.875.059.934.632,1.052,1.441a6.2,6.2,0,0,0,.331,1.677h-1.346c-.037-.294-.243-1.912-.243-2-.088-.36-.213-.537-.662-.537h-1.111v2.545h-1.228Zm-2.626,3.162a3.346,3.346,0,1,0-.007-.007m10.414.022a5.659,5.659,0,1,0-.007,0" transform="translate(2158.532 35.881)" fill="#d5e0d5"/>
  </g>
</svg>
