<svg xmlns="http://www.w3.org/2000/svg" xmlns:xlink="http://www.w3.org/1999/xlink" width="142.222" height="80" viewBox="0 0 142.222 80">
  <defs>
    <clipPath id="clip-path">
      <path id="path3470" d="M0-405H142.222v80H0Z" transform="translate(0 405)" fill="#d5e0d5"/>
    </clipPath>
  </defs>
  <g id="g3438" transform="translate(0 405)">
    <g id="g3476" transform="translate(0 -405)">
      <g id="g3478" clip-path="url(#clip-path)">
        <g id="g3484" transform="translate(23.623 23.381)">
          <path id="path3486" d="M-66.266-84.259c2.979,0,5.2-.549,6.61-1.632,1.392-1.072,2.354-2.929,2.858-5.519.47-2.421.291-4.112-.532-5.024-.841-.932-2.66-1.4-5.406-1.4H-67.5l-2.639,13.58ZM-81.837-67.531a.74.74,0,0,1-.571-.27.74.74,0,0,1-.156-.612L-75.57-104.4a.741.741,0,0,1,.727-.6h15.075c4.738,0,8.264,1.286,10.481,3.824s2.917,6.117,2.045,10.6a16.915,16.915,0,0,1-1.813,5.039,16.873,16.873,0,0,1-3.336,4.18,14.635,14.635,0,0,1-5.49,3.29,24.87,24.87,0,0,1-7.543.97h-6.1l-1.743,8.968a.741.741,0,0,1-.727.6Z" transform="translate(82.578 105)" fill="#d5e0d5"/>
        </g>
        <g id="g3492" transform="translate(56.996 13.813)">
          <path id="path3494" d="M-81-152.218a.739.739,0,0,1-.571-.27.739.739,0,0,1-.156-.612l3.094-15.923c.294-1.514.222-2.6-.2-3.06-.261-.281-1.044-.752-3.36-.752H-87.8l-3.89,20.018a.741.741,0,0,1-.727.6H-100.2a.74.74,0,0,1-.572-.27.74.74,0,0,1-.156-.612l6.995-35.988a.741.741,0,0,1,.727-.6h7.778a.741.741,0,0,1,.572.269.741.741,0,0,1,.156.613l-1.688,8.686h6.03c4.594,0,7.709.81,9.523,2.476,1.849,1.7,2.426,4.418,1.715,8.079l-3.254,16.747a.741.741,0,0,1-.727.6Z" transform="translate(100.938 189.688)" fill="#d5e0d5"/>
        </g>
        <g id="g3500" transform="translate(84.812 23.381)">
          <path id="path3502" d="M-66.266-84.259c2.979,0,5.2-.549,6.61-1.632,1.392-1.072,2.354-2.929,2.858-5.519.47-2.421.291-4.112-.532-5.024-.841-.932-2.66-1.4-5.406-1.4H-67.5l-2.639,13.58ZM-81.837-67.531a.74.74,0,0,1-.571-.27.74.74,0,0,1-.156-.612l6.995-35.988a.741.741,0,0,1,.727-.6h15.075c4.738,0,8.264,1.286,10.481,3.824s2.916,6.116,2.045,10.6a16.929,16.929,0,0,1-1.813,5.039,16.873,16.873,0,0,1-3.336,4.18,14.635,14.635,0,0,1-5.49,3.29,24.87,24.87,0,0,1-7.543.97h-6.1L-73.27-68.13a.741.741,0,0,1-.727.6Z" transform="translate(82.578 105)" fill="#d5e0d5"/>
        </g>
      </g>
    </g>
  </g>
</svg>
