<svg xmlns="http://www.w3.org/2000/svg" width="47.26" height="39.468" viewBox="0 0 47.26 39.468"><g transform="translate(47.26 47.326) rotate(180)"><g transform="translate(0 7.858)"><g transform="translate(0 0)"><path d="M15.126,25.745a12.522,12.522,0,0,0-3.46-.505,10.874,10.874,0,0,0-4.339.889c1.091-3.993,3.711-10.882,8.93-11.658a1.24,1.24,0,0,0,1.011-.892L18.409,9.5a1.24,1.24,0,0,0-1.025-1.562,8.664,8.664,0,0,0-1.167-.079c-6.265,0-12.469,6.539-15.087,15.9C-.407,29.252-.857,37.51,2.928,42.708a11.3,11.3,0,0,0,9.185,4.617h.049a10.995,10.995,0,0,0,2.964-21.581Z" transform="translate(0 -7.858)" fill="#f0f0f0"/><path d="M70.362,30.937a11.021,11.021,0,0,0-6.61-5.192,12.522,12.522,0,0,0-3.46-.505,10.876,10.876,0,0,0-4.339.889c1.091-3.993,3.711-10.882,8.93-11.658a1.241,1.241,0,0,0,1.011-.892L67.035,9.5A1.24,1.24,0,0,0,66.01,7.937a8.653,8.653,0,0,0-1.167-.079c-6.265,0-12.469,6.539-15.087,15.9-1.536,5.493-1.987,13.751,1.8,18.95a11.3,11.3,0,0,0,9.185,4.616h.049a10.995,10.995,0,0,0,9.573-16.389Z" transform="translate(-24.521 -7.858)" fill="#f0f0f0"/></g></g></g></svg>