<svg version="1.2" xmlns="http://www.w3.org/2000/svg" viewBox="0 0 95 95" width="95" height="95">
	<title>New Project</title>
	<style>
		.s0 { fill: #d5e0d5 } 
	</style>
	<path id="react-brands" fill-rule="evenodd" class="s0" d="m91.6 47.9c0 5.5-7.3 10.9-17.3 14.2q-0.8 0.3-1.6 0.5q0.3 1.2 0.5 2.4c2 10 0.5 18.2-4.2 20.9c-4.6 2.6-11.9 0-19.4-6.4q-1.2-1-2.3-2.1q-0.9 0.9-1.8 1.7c-7.7 6.7-15.6 9.5-20.3 6.8c-4.5-2.7-6-10.3-4.1-19.9q0.3-1.6 0.7-3.2q-1.2-0.3-2.4-0.7c-9.6-3.3-16.7-8.8-16.7-14.2c0-5.2 6.6-10.3 15.9-13.5q1.5-0.6 3.2-1q-0.3-1.5-0.6-2.9c-1.9-9.8-0.6-17.7 4-20.3c4.7-2.8 12.6 0.2 20.5 7.2q0.8 0.7 1.5 1.3q1-1 2.2-2c7.5-6.5 14.9-9.2 19.5-6.6c4.8 2.7 6.2 11 4 21.4q-0.2 1-0.4 1.9q1.4 0.4 2.8 0.9c9.5 3.3 16.3 8.4 16.3 13.6zm-41.8-26.5q4 4.4 7.4 9.2q5.9 0.6 11.7 1.9q0.2-0.9 0.4-1.8c1.8-8.9 0.7-15.7-2.3-17.4c-2.7-1.6-8.7 0.6-15.2 6.3q-1 0.9-2 1.8zm-20.6 31q-1.7 4-2.8 7.7q4 0.9 8.1 1.3q-1.5-2.2-2.8-4.5q-1.3-2.2-2.5-4.5zm0-8.8q1.2-2.3 2.5-4.5q1.3-2.2 2.7-4.4q-4.2 0.5-8 1.3q1.2 3.7 2.8 7.6zm5.7 11.5q2 3.4 4.3 6.7q3.8 0.3 7.9 0.3c2.8 0 5.5-0.1 8-0.3q2.3-3.3 4.2-6.8q2-3.5 3.8-7.1q-1.8-3.5-3.8-7q-2-3.4-4.2-6.7q-3.9-0.3-8-0.3q-4 0-7.9 0.3q-2.3 3.3-4.3 6.8q-2 3.4-3.7 7q1.7 3.6 3.7 7.1zm25 6.3q4.1-0.5 8.1-1.4q-1.2-4-2.9-7.7q-1.2 2.3-2.5 4.6q-1.3 2.3-2.7 4.5zm8-25.3q-3.8-0.9-8-1.4q1.4 2.2 2.7 4.4q1.3 2.2 2.5 4.5q1.6-3.7 2.8-7.5zm-25.9-5.8q5.1-0.2 10.3 0q-2.4-3.2-5.1-6.2c-1.8 1.9-3.5 4-5.2 6.2zm-17.2-0.5q0.3 1.3 0.6 2.6q5.8-1.2 11.7-1.8q3.4-4.8 7.5-9.2q-0.7-0.6-1.4-1.2c-6.8-6-13.3-8.5-16.2-6.8c-2.7 1.6-3.8 8-2.2 16.4zm2.3 18.2q-2.5-5.4-4.3-11q-1.5 0.4-3 0.9c-7.9 2.8-13.4 6.8-13.4 10c0.3 2.1 1.5 4 3.3 5.2c3 2.4 7.2 4.3 10.9 5.4q1.1 0.4 2.2 0.7q1.8-5.7 4.3-11.2zm17.6 26.7c-2.7-2.9-5.2-6-7.5-9.3q-6-0.4-11.8-1.7q-0.4 1.5-0.7 2.9c-1.5 8.3-0.4 14.4 2.4 16c2 0.8 4.2 0.7 6.1-0.2c3.6-1.5 6.9-3.5 9.8-6.2q0.8-0.7 1.7-1.5zm7.7-9q-2.6 0.1-5.3 0.1q-2.6 0-5.1-0.1c1.7 2.3 3.5 4.4 5.3 6.3q2.7-3 5.1-6.3zm17.1 0q-0.2-1-0.4-2.1q-5.9 1.3-11.9 1.8q-3.3 4.9-7.3 9.3q1.1 1.1 2.2 2c6.4 5.5 12.2 7.6 15 6c1.7-1.4 2.7-3.4 2.9-5.5c0.5-3.8 0.4-7.7-0.5-11.5zm18.4-17.8c0-3.2-5.7-7.3-13.8-10.1q-1.3-0.4-2.6-0.8q-1.8 5.6-4.3 10.9q2.6 5.4 4.5 11.1q0.7-0.2 1.4-0.4c8.7-2.9 14.8-7.3 14.8-10.7zm-48.7 0.1c0-4.4 3.5-8 7.9-8c4.4 0 8 3.6 8 8c0 4.4-3.6 8-8 8c-4.4 0-7.9-3.6-7.9-8z" />
</svg>