<svg xmlns="http://www.w3.org/2000/svg" width="88.935" height="77.822" viewBox="0 0 88.935 77.822"><path d="M72.642,57.232q-1.407-.469-2.814-.886c.156-.643.3-1.285.434-1.928C72.4,44.065,70.992,35.745,66.25,33c-4.568-2.623-12.02.1-19.559,6.67-.747.643-1.476,1.32-2.171,2-.469-.452-.955-.9-1.442-1.338-7.9-7.018-15.824-9.97-20.566-7.209-4.551,2.64-5.906,10.474-4,20.271.191.973.4,1.928.643,2.9-1.112.313-2.206.66-3.231,1.025C6.653,60.532,0,65.6,0,70.85c0,5.419,7.087,10.856,16.727,14.157.782.261,1.563.521,2.362.747-.261,1.042-.486,2.067-.695,3.127-1.824,9.64-.4,17.283,4.151,19.906,4.69,2.71,12.576-.069,20.254-6.792.608-.538,1.216-1.094,1.824-1.685.764.747,1.563,1.459,2.362,2.154,7.434,6.392,14.782,8.98,19.316,6.357,4.69-2.71,6.219-10.926,4.238-20.931q-.234-1.146-.521-2.345c.556-.156,1.094-.33,1.633-.5,10.023-3.318,17.283-8.685,17.283-14.191C88.935,65.587,82.091,60.48,72.642,57.232ZM49.14,42.485c6.462-5.628,12.489-7.834,15.234-6.253,2.936,1.685,4.065,8.494,2.223,17.44-.122.591-.243,1.164-.4,1.737a88.922,88.922,0,0,0-11.69-1.841,87.763,87.763,0,0,0-7.4-9.224C47.785,43.7,48.445,43.092,49.14,42.485Zm-20.1,37.381c.886,1.511,1.789,3.022,2.744,4.5a78.656,78.656,0,0,1-8.06-1.3,81.142,81.142,0,0,1,2.831-7.73c.8,1.529,1.615,3.04,2.484,4.534Zm-5.263-20.9c2.5-.556,5.159-1.007,7.921-1.355-.921,1.442-1.824,2.918-2.675,4.412-.851,1.476-1.685,2.988-2.467,4.516-1.094-2.588-2.015-5.124-2.779-7.573Zm4.759,11.968c1.146-2.4,2.4-4.742,3.717-7.052S35,59.334,36.495,57.128c2.606-.191,5.263-.3,7.973-.3s5.385.1,7.973.3q2.215,3.283,4.221,6.722t3.769,7.018q-1.746,3.6-3.752,7.087c-1.32,2.31-2.727,4.551-4.2,6.774-2.588.191-5.281.278-8.008.278s-5.367-.087-7.921-.243q-2.267-3.309-4.273-6.774c-1.338-2.31-2.571-4.655-3.735-7.052ZM59.91,79.83c.886-1.529,1.72-3.075,2.536-4.638a80.636,80.636,0,0,1,2.936,7.695,76.293,76.293,0,0,1-8.164,1.39c.938-1.459,1.824-2.953,2.692-4.447Zm2.5-13.288c-.816-1.529-1.65-3.057-2.519-4.551q-1.277-2.215-2.658-4.377A79.933,79.933,0,0,1,65.207,59,76.874,76.874,0,0,1,62.411,66.542ZM44.5,47a76.277,76.277,0,0,1,5.142,6.219c-3.439-.156-6.9-.156-10.335,0C41.011,50.979,42.765,48.894,44.5,47ZM24.353,36.353c2.918-1.7,9.4.73,16.224,6.774.434.382.869.8,1.32,1.216a88.249,88.249,0,0,0-7.452,9.224,91.564,91.564,0,0,0-11.673,1.806c-.226-.886-.417-1.789-.608-2.692-1.633-8.407-.556-14.747,2.189-16.328ZM20.1,82.141c-.73-.208-1.442-.434-2.154-.677A35.427,35.427,0,0,1,7,76.044,7.794,7.794,0,0,1,3.735,70.85c0-3.179,5.489-7.243,13.41-10.005.99-.347,2-.66,3.005-.955a92.365,92.365,0,0,0,4.256,11.047A94.948,94.948,0,0,0,20.1,82.141ZM40.351,99.163a31.793,31.793,0,0,1-9.8,6.132,7.688,7.688,0,0,1-6.132.226c-2.762-1.6-3.908-7.73-2.345-15.981.191-.973.4-1.945.643-2.9a86.9,86.9,0,0,0,11.794,1.7,91.667,91.667,0,0,0,7.5,9.276c-.556.538-1.112,1.06-1.668,1.546Zm4.256-4.221c-1.772-1.911-3.544-4.03-5.263-6.305,1.668.069,3.387.1,5.124.1,1.789,0,3.544-.035,5.281-.122A74.909,74.909,0,0,1,44.607,94.942Zm22.7,5.211a7.72,7.72,0,0,1-2.866,5.437c-2.762,1.6-8.65-.486-15.008-5.941-.73-.625-1.459-1.3-2.206-2a85.927,85.927,0,0,0,7.33-9.31,85.628,85.628,0,0,0,11.846-1.824c.174.712.33,1.424.469,2.119A31.665,31.665,0,0,1,67.309,100.153ZM70.471,81.48c-.486.156-.973.313-1.476.452A88.242,88.242,0,0,0,64.565,70.85,87.8,87.8,0,0,0,68.82,59.924c.9.261,1.772.538,2.606.816C79.52,63.52,85.2,67.654,85.2,70.815,85.2,74.22,79.138,78.614,70.471,81.48Zm-26-2.606a7.956,7.956,0,1,0-7.956-7.956,7.954,7.954,0,0,0,7.956,7.956Z" transform="translate(0 -32.012)" fill="#39aed9"/></svg>