<svg version="1.2" xmlns="http://www.w3.org/2000/svg" viewBox="0 0 95 95" width="95" height="95">
	<title>New Project</title>
	<style>
		.s0 { fill: #d5e0d5 } 
	</style>
	<path id="path21611" fill-rule="evenodd" class="s0" d="m63.5 19c2.3 0 4.3 2 4.3 4.3v1.5h-2.9v-1.5c0-0.8-0.6-1.4-1.4-1.4h-55.1c-0.9 0-1.5 0.6-1.5 1.4v30.5h34.8v14.5h-33.3c-2.4 0-4.4-2-4.4-4.4v-40.6c0-2.3 2-4.3 4.4-4.3zm11.6 8.7c2.3 0 4.3 2 4.3 4.3v10.2h-2.9v-8.7h-29v31.9h20.3v7.2c0 1.7 0.6 3.2 1.5 4.4h-20.3c-2.4 0-4.4-2-4.4-4.4v-40.6c0-2.3 2-4.3 4.4-4.3zm-62.8 3.3c0.3 0.3 0.4 0.7 0.4 1v2.9c0 0.6-0.3 1.1-0.7 1.3c-0.5 0.3-1 0.3-1.5 0c-0.4-0.2-0.7-0.7-0.7-1.3v-2.9c0-0.3 0.1-0.7 0.4-1c0.3-0.3 0.6-0.4 1-0.4c0.4 0 0.8 0.1 1.1 0.4zm0 8.7c0.3 0.3 0.4 0.7 0.4 1v8.7c0 0.6-0.3 1.1-0.7 1.3c-0.5 0.3-1 0.3-1.5 0c-0.4-0.2-0.7-0.7-0.7-1.3v-8.7c0-0.3 0.1-0.7 0.4-1c0.3-0.3 0.6-0.4 1-0.4c0.4 0 0.8 0.1 1.1 0.4zm40.6 0c0.3 0.3 0.4 0.7 0.4 1v3c0 0.8-0.6 1.4-1.4 1.4c-0.8 0-1.5-0.6-1.5-1.4v-3c0-0.3 0.1-0.7 0.4-1c0.3-0.3 0.6-0.4 1-0.4c0.4 0 0.8 0.1 1.1 0.4zm33.8 5.4c2.3 0 4.3 2 4.3 4.3v23.2c0 2.4-2 4.4-4.3 4.4h-11.6c-2.4 0-4.4-2-4.4-4.4v-23.2c0-2.3 2-4.3 4.4-4.3zm-33.8 3.3c0.3 0.3 0.4 0.6 0.4 1v8.7c0 0.8-0.6 1.5-1.5 1.5c-0.8 0-1.4-0.7-1.4-1.5v-8.7c0-0.8 0.6-1.4 1.4-1.4c0.4 0 0.8 0.1 1.1 0.4zm20.7 22.8h14.5v-20.3h-14.5zm-39.2-8.7h3c1.9 0 1.9-2.9 0-2.9h-3c-2 0.1-1.9 3 0 2.9zm24.7 7.2c0 0.8 0.7 1.5 1.5 1.5h2.9c0.8 0 1.4-0.7 1.4-1.5c0-0.8-0.6-1.4-1.4-1.4h-2.9c-0.8 0-1.5 0.6-1.5 1.4zm-17.4 1.5v1.5c0 1.6 0.6 3.1 1.5 4.3h-20.4c-0.8 0-1.4-0.6-1.4-1.4c0-0.9 0.6-1.5 1.4-1.5h2.4c1.2-1 2-2 2.5-2.9z" />
</svg>