<svg xmlns="http://www.w3.org/2000/svg" width="102.557" height="68.362" viewBox="0 0 102.557 68.362"><g transform="translate(-0.528 -3.176)"><g transform="translate(0.528 3.176)"><path d="M5.666,283.243a5.158,5.158,0,0,0-5.138,5.121v47.86a5.158,5.158,0,0,0,5.138,5.121h39.3V324.259H3.95V288.364a1.669,1.669,0,0,1,1.716-1.7H70.622a1.658,1.658,0,0,1,1.7,1.7v1.7h3.419v-1.7a5.143,5.143,0,0,0-5.121-5.121Zm47.857,10.242a5.169,5.169,0,0,0-5.135,5.138v47.86a5.155,5.155,0,0,0,5.135,5.121H77.509a8.433,8.433,0,0,1-1.766-5.121v-8.55H51.807v-37.6H86v10.256h3.419V298.623a5.169,5.169,0,0,0-5.135-5.138Zm-44.465,3.4a1.709,1.709,0,0,0-1.689,1.743v3.419a1.71,1.71,0,1,0,3.419,0v-3.419a1.71,1.71,0,0,0-1.729-1.743Zm0,10.259a1.71,1.71,0,0,0-1.689,1.743v10.242a1.71,1.71,0,1,0,3.419,0V308.882a1.709,1.709,0,0,0-1.729-1.742Zm47.86,0a1.71,1.71,0,0,0-1.689,1.743V312.3a1.709,1.709,0,1,0,3.419,0v-3.419a1.709,1.709,0,0,0-1.729-1.742ZM84.286,314a5.146,5.146,0,0,0-5.125,5.121v27.359a5.146,5.146,0,0,0,5.125,5.121H97.964a5.143,5.143,0,0,0,5.121-5.121V319.124A5.143,5.143,0,0,0,97.964,314Zm-27.369,3.4a1.709,1.709,0,0,0-1.689,1.726v10.259a1.709,1.709,0,1,0,3.419,0V319.124a1.709,1.709,0,0,0-1.729-1.726Zm25.666,3.445H99.666v23.92H82.584ZM36.346,331.1h3.5a1.711,1.711,0,0,1,0,3.422H36.426a1.712,1.712,0,1,1-.08-3.422ZM67.2,341.345h3.419a1.709,1.709,0,1,1,0,3.419H67.2a1.709,1.709,0,1,1,0-3.419Zm-38.773,3.419a12.817,12.817,0,0,1-2.891,3.422H22.749a1.709,1.709,0,1,0,0,3.419h23.99a8.423,8.423,0,0,1-1.769-5.121v-1.719Z" transform="translate(-0.528 -283.243)" fill="#0a034d"/></g></g></svg>