<svg version="1.2" xmlns="http://www.w3.org/2000/svg" viewBox="0 0 30 30" width="30" height="30">
	<title>New Project</title>
	<style>
		.s0 { opacity: .5;fill: #333333 } 
		.s1 { fill: #747474 } 
		.s2 { fill: #333333 } 
	</style>
	<g id="Folder 1">
		<path id="Path 35" class="s0" d="m5.5 8.7l14.8-3.2c0.5-0.1 1.2 0.2 1.3 0.9l1.1 5.6z" />
		<path id="Path 36" fill-rule="evenodd" class="s1" d="m16 17.3c0-1.8 1.5-3.2 3.3-3.2h5.4c0.6 0 1.1 0.4 1.1 1v4.4c0 0.6-0.5 1-1.1 1h-5.4c-1.8 0-3.3-1.4-3.3-3.2zm3.3-1.6c-0.9 0-1.6 0.7-1.6 1.6c0 0.9 0.7 1.6 1.6 1.6c0.9 0 1.6-0.7 1.6-1.6c0-0.9-0.7-1.6-1.6-1.6z" />
		<path id="Path 37" class="s2" d="m19.3 20.5h5.4v3.3c0 1.2-1 2.1-2.2 2.1h-17.3c-0.6 0-1-0.4-1-1v-15.2c0-0.6 0.4-1 1-1h17.3c1.2 0 2.2 0.9 2.2 2.1v3.3h-5.4c-1.8 0-3.3 1.4-3.3 3.2c0 1.8 1.5 3.2 3.3 3.2z" />
	</g>
</svg>