<svg xmlns="http://www.w3.org/2000/svg" width="43.218" height="40.882" viewBox="0 0 43.218 40.882"><g transform="translate(-524.329 -1699.034)"><path d="M3.2,9.308,32.8,3.041A2.188,2.188,0,0,1,35.4,4.77l2.377,11.237Z" transform="translate(523.722 1696.034)" fill="#0a034d" opacity="0.3"/><path d="M13,17.4a6.367,6.367,0,0,1,6.483-6.483h10.8a2.042,2.042,0,0,1,2.161,2.161v8.644a2.042,2.042,0,0,1-2.161,2.161h-10.8A6.367,6.367,0,0,1,13,17.4Zm6.483-3.241A3.241,3.241,0,1,0,22.724,17.4,3.323,3.323,0,0,0,19.483,14.16Z" transform="translate(535.099 1705.227)" fill="#0a034d" opacity="0.3"/><path d="M25.77,23.206a6.367,6.367,0,0,1,6.483-6.483h10.8V10.241a4.335,4.335,0,0,0-4.322-4.322H4.161A2.042,2.042,0,0,0,2,8.08V38.333a2.042,2.042,0,0,0,2.161,2.161H38.736a4.335,4.335,0,0,0,4.322-4.322V29.689h-10.8A6.367,6.367,0,0,1,25.77,23.206Z" transform="translate(522.329 1699.422)" fill="#0a034d"/></g></svg>