<svg xmlns="http://www.w3.org/2000/svg" width="103.754" height="77.822" viewBox="0 0 103.754 77.822"><path d="M48.936,74.839C48.888,74.936,48.839,75.014,48.936,74.839Zm40.388-14.1a21.263,21.263,0,0,0-9.4,2.189c-.956-1.929-1.945-3.615-2.108-4.88a13.026,13.026,0,0,1-.178-4.1,34.538,34.538,0,0,1,1.232-4.41c-.016-.178-.227-1.07-2.318-1.086s-3.891.405-4.1.956a19.913,19.913,0,0,0-.859,3.1c-.373,1.9-4.181,8.673-6.337,12.207a12.587,12.587,0,0,1-1.443-3.567,13.025,13.025,0,0,1-.178-4.1,34.541,34.541,0,0,1,1.232-4.41c-.016-.178-.227-1.07-2.317-1.086s-3.891.405-4.1.956-.438,1.848-.859,3.1-5.494,12.532-6.822,15.466c-.681,1.491-1.265,2.691-1.686,3.5-.065.13-.113.211-.146.276.049-.081.081-.162.081-.13-.357.7-.567,1.086-.567,1.086v.016c-.276.519-.584.989-.73.989a6.725,6.725,0,0,1,.049-3.226c.762-3.923,2.561-10.019,2.545-10.23-.016-.113.34-1.167-1.183-1.735a1.908,1.908,0,0,0-2.14.357c-.13,0-.227.324-.227.324s1.637-6.874-3.143-6.874c-2.983,0-7.133,3.275-9.173,6.242-1.281.7-4.053,2.2-6.971,3.81-1.119.616-2.27,1.248-3.356,1.848-.081-.081-.146-.162-.227-.243C18.089,60.881,7.376,56.5,7.83,48.187c.162-3.032,1.216-10.992,20.6-20.654,15.887-7.911,28.589-5.739,30.776-.908,3.145,6.89-6.791,19.713-23.29,21.562-6.289.7-9.594-1.735-10.421-2.643-.859-.956-.989-1.005-1.313-.827-.535.292-.195,1.135,0,1.637.486,1.281,2.513,3.55,5.964,4.685,3.032.989,10.4,1.54,19.319-1.913,10.016-3.858,17.812-14.607,15.526-23.6C62.664,16.38,47.5,13.381,33.167,18.471c-8.542,3.032-17.779,7.8-24.425,14.007C.849,39.87-.414,46.306.105,49c1.847,9.549,15.007,15.774,20.274,20.378-.259.146-.5.276-.73.405-2.641,1.313-12.674,6.566-15.185,12.11-2.837,6.29.47,10.8,2.641,11.413,6.775,1.881,13.712-1.508,17.439-7.068S27.819,73.412,26.1,70.105c-.016-.049-.049-.081-.065-.13.681-.405,1.378-.811,2.075-1.216,1.344-.794,2.657-1.524,3.808-2.156a25.181,25.181,0,0,0-1.362,6.906c-.292,3.567,1.183,8.187,3.1,10a3.4,3.4,0,0,0,2.495.811c2.237,0,3.242-1.848,4.359-4.053,1.378-2.691,2.594-5.82,2.594-5.82s-1.524,8.463,2.643,8.463c1.522,0,3.046-1.962,3.729-2.967v.016s.032-.065.113-.195c.162-.243.243-.389.243-.389V79.33c.616-1.054,1.962-3.469,3.986-7.457,2.626-5.155,5.137-11.591,5.137-11.591a32.625,32.625,0,0,0,1.005,4.183,39.159,39.159,0,0,0,2.172,4.863c-.616.843-.989,1.329-.989,1.329a.05.05,0,0,0,.016.032c-.486.648-1.038,1.346-1.6,2.026-2.073,2.464-4.539,5.285-4.864,6.1a1.656,1.656,0,0,0,.454,2.221,3.941,3.941,0,0,0,2.544.405,11.242,11.242,0,0,0,3.81-.875,13.326,13.326,0,0,0,3.273-1.718,7.319,7.319,0,0,0,3.145-6.452,13.426,13.426,0,0,0-1.183-4.572c.178-.259.373-.535.551-.811a86.184,86.184,0,0,0,5.689-9.828,32.624,32.624,0,0,0,1.005,4.183,28.594,28.594,0,0,0,1.847,4.166A17.821,17.821,0,0,0,70.3,72.68c-1.2,3.453-.259,5.009,1.508,5.366a5.439,5.439,0,0,0,2.772-.567,12.882,12.882,0,0,0,3.5-1.8c2.026-1.491,3.986-3.583,3.857-6.42a12.061,12.061,0,0,0-.875-3.794A19.788,19.788,0,0,1,91.124,64.3c9.027,1.054,10.794,6.7,10.453,9.046A5.994,5.994,0,0,1,98.708,77.4c-.632.389-.827.535-.778.827.081.422.373.405.908.308a7.043,7.043,0,0,0,4.911-6.274c.259-5.512-5.04-11.575-14.428-11.527ZM19.747,84.193c-2.981,3.259-7.164,4.491-8.962,3.453-1.929-1.122-1.167-5.917,2.511-9.39A48.035,48.035,0,0,1,20.331,73c.438-.259,1.07-.648,1.848-1.119.13-.081.195-.113.195-.113.146-.1.308-.178.47-.276a12.94,12.94,0,0,1-3.1,12.694ZM41.529,69.376c-1.038,2.545-3.225,9.03-4.554,8.689-1.135-.292-1.832-5.236-.227-10.1a22.359,22.359,0,0,1,3.55-6.5c1.636-1.832,3.435-2.416,3.857-1.686.567.956-1.978,8.009-2.626,9.6Zm17.995,8.592c-.438.227-.843.373-1.038.259-.146-.081.178-.389.178-.389s2.253-2.416,3.145-3.518c.519-.648,1.119-1.41,1.765-2.253,0,.081.016.162.016.259-.021,2.9-2.808,4.864-4.072,5.642ZM73.4,74.807c-.324-.227-.276-.989.811-3.356a12.6,12.6,0,0,1,3.08-3.972A5.866,5.866,0,0,1,77.6,69.23a5.716,5.716,0,0,1-4.2,5.577Z" transform="translate(-0.004 -16.004)" fill="#cc71a3"/></svg>