<svg version="1.2" xmlns="http://www.w3.org/2000/svg" viewBox="0 0 95 95" width="95" height="95">
	<title>New Project</title>
	<style>
		.s0 { fill: #d5e0d5 } 
	</style>
	<path id="sass-brands" fill-rule="evenodd" class="s0" d="m90.7 61.5c-0.1 3.6-3.4 5.1-4 5.2c-0.5 0.1-0.7 0.1-0.8-0.3c0-0.2 0.2-0.3 0.7-0.7c0.5-0.3 2.1-1.4 2.3-3.3c0.3-2-1.1-6.6-8.6-7.5c-3.5-0.4-6.2 0.1-8.3 1c0.4 1 0.7 2.1 0.7 3.1c0.1 2.4-1.5 4.1-3.2 5.3q-1.3 1-2.9 1.5c-0.7 0.3-1.6 0.6-2.3 0.5c-1.4-0.3-2.2-1.6-1.2-4.5c0.5-1.5 2.1-3.8 4.6-5.9c-0.6-1.1-1.2-2.3-1.6-3.4q-0.5-1.7-0.8-3.5c0 0-2 4.3-4.7 8.2q-0.2 0.3-0.5 0.6c0.6 1.2 1 2.5 1 3.8c0.1 2.3-0.9 4.1-2.6 5.3q-1.2 0.9-2.7 1.5c-0.5 0.2-1.6 0.6-3.1 0.7c-0.9 0-1.7 0-2.1-0.4c-0.6-0.4-0.7-1-0.4-1.8c0.3-0.7 2.3-3 4-5c0.5-0.6 0.9-1.2 1.3-1.7q0 0 0 0c0 0 0.3-0.4 0.8-1.1c-0.6-1.4-1.4-2.8-1.7-4.1q-0.6-1.7-0.9-3.4c0 0-2.1 5.3-4.2 9.6c-1.7 3.3-2.8 5.3-3.3 6.1v0.1q0 0-0.2 0.3q-0.1 0.2-0.1 0.2v-0.1c-0.6 0.9-1.8 2.5-3.1 2.5c-3.4 0-2.2-7-2.2-7c0 0-1 2.6-2.1 4.8c-0.9 1.8-1.8 3.4-3.6 3.4c-0.5 0-1.4-0.1-2.1-0.7c-1.6-1.5-2.8-5.3-2.5-8.3c0.2-2.5 0.5-4.2 1.1-5.7c-1 0.5-2.1 1.1-3.2 1.8q-0.8 0.5-1.7 1q0 0.1 0.1 0.1c1.4 2.7 1.8 8.7-1.3 13.3c-3.1 4.6-8.8 7.4-14.4 5.9c-1.8-0.5-4.6-4.2-2.2-9.4c2.1-4.6 10.4-9 12.5-10.1q0.3-0.1 0.6-0.3c-4.3-3.8-15.2-8.9-16.7-16.8c-0.4-2.3 0.6-7.6 7.1-13.7c5.5-5.1 13.1-9.1 20.2-11.6c11.9-4.2 24.4-1.7 26.3 5.9c1.9 7.4-4.5 16.3-12.8 19.5c-7.4 2.8-13.5 2.4-16 1.6c-2.8-1-4.5-2.9-4.9-3.9c-0.2-0.4-0.5-1.1 0-1.4c0.3-0.1 0.4-0.1 1.1 0.7c0.7 0.8 3.4 2.8 8.6 2.2c13.6-1.5 21.8-12.1 19.2-17.8c-1.8-4-12.3-5.8-25.4 0.7c-16 8-16.9 14.6-17 17.1c-0.4 6.9 8.4 10.5 13.2 15.6q0.1 0.1 0.2 0.2c0.9-0.5 1.9-1 2.8-1.5c2.4-1.3 4.7-2.6 5.8-3.2c1.7-2.4 5.1-5.1 7.5-5.1c4 0 2.6 5.7 2.6 5.7c0 0 0.1-0.3 0.2-0.3c0.1 0 0.6-0.8 1.8-0.3c1.3 0.5 1 1.3 1 1.4c0 0.2-1.5 5.2-2.1 8.5c-0.3 1.5-0.1 2.6-0.1 2.6c0.2 0 0.4-0.3 0.6-0.8c0 0 0.2-0.3 0.5-0.9c0 0 0 0.1-0.1 0.1q0.1 0 0.2-0.2c0.3-0.7 0.8-1.7 1.4-2.9c1.1-2.4 5.2-11.7 5.6-12.8c0.3-1 0.5-2.1 0.7-2.5c0.2-0.5 1.7-0.8 3.4-0.8c1.7 0 1.9 0.7 1.9 0.9c0 0.1-0.8 2.2-1 3.6c-0.2 1.5 0 2.2 0.1 3.4c0.1 0.8 0.6 1.8 1.2 3c1.8-3 5-8.6 5.3-10.1q0.2-1.3 0.7-2.6c0.1-0.5 1.6-0.8 3.4-0.8c1.7 0 1.9 0.8 1.9 0.9c0 0.2-0.9 2.2-1 3.7c-0.2 1.4-0.1 2.1 0.1 3.3c0.1 1.1 1 2.5 1.8 4.1c2.4-1.2 5-1.8 7.7-1.8c7.8-0.1 12.2 4.9 11.9 9.5zm-66.8-0.6q-0.2 0.1-0.4 0.2q0 0-0.2 0.1q-0.9 0.6-1.5 0.9c-1.6 1-4 2.6-5.8 4.3c-3.1 2.9-3.7 6.9-2.1 7.8c1.5 0.9 5-0.2 7.4-2.8c2.6-2.9 3.7-6.5 2.6-10.5zm17.6-9.7c-0.4-0.6-1.8-0.1-3.2 1.4c-0.8 0.9-2.3 3.3-2.9 5.3c-1.4 4.1-0.8 8.2 0.2 8.4c1.1 0.3 2.9-5.1 3.7-7.2c0.6-1.3 2.7-7.1 2.2-7.9zm16.1 10.3q-0.1-0.1-0.1-0.2q-0.8 1.1-1.4 1.9c-0.8 0.9-2.6 2.9-2.6 2.9c0 0-0.3 0.3-0.2 0.3c0.2 0.1 0.5 0 0.9-0.2c1-0.6 3.3-2.3 3.4-4.7zm11.5-2.5q0-0.8-0.2-1.5c-1.4 1.3-2.2 2.6-2.6 3.3c-0.9 2-0.9 2.6-0.6 2.8c1.3-0.5 3.4-1.6 3.4-4.6z" />
</svg>