<svg version="1.2" xmlns="http://www.w3.org/2000/svg" viewBox="0 0 30 30" width="30" height="30">
	<title>New Project</title>
	<style>
		.s0 { opacity: .3;fill: #333333 } 
		.s1 { fill: #333333 } 
	</style>
	<g id="Folder 1">
		<path id="Path 33" class="s0" d="m27.5 24.7c0 1.3-1 2.3-2.3 2.3c-1.2 0-2.2-1-2.2-2.3c0-0.8 0.4-1.5 1.1-1.9v-9.9c-2.6 6.9-9.1 11.8-16.9 11.8v-16.9c0-0.7 0.4-1.1 1.1-1.1h16.9h1.2v16.1c0.6 0.4 1.1 1.1 1.1 1.9z" />
		<path id="Path 34" class="s1" d="m26.1 6.8c-1 9.8-8.9 17.8-18.9 18.8c-0.5 0.9-1.2 1.4-2.2 1.4c-1.4 0-2.5-1.1-2.5-2.5c0-1.4 1.1-2.5 2.5-2.5c0.9 0 1.6 0.5 2.1 1.1c8.6-0.9 15.5-7.9 16.5-16.5c-0.6-0.5-1.1-1.2-1.1-2.1c0-1.4 1.1-2.5 2.5-2.5c1.4 0 2.5 1.1 2.5 2.5c0 1-0.5 1.8-1.4 2.3z" />
	</g>
</svg>