<svg xmlns="http://www.w3.org/2000/svg" width="50" height="50" viewBox="0 0 50 50"><g transform="translate(-109 -1693.651)"><path d="M42.414,36.313V4H6.26A2.135,2.135,0,0,0,4,6.26v33.9A36.3,36.3,0,0,0,37.9,16.428V36.313a4.374,4.374,0,0,0-2.26,3.841,4.519,4.519,0,0,0,9.039,0A4.374,4.374,0,0,0,42.414,36.313Z" transform="translate(114.326 1698.976)" fill="#0a034d" opacity="0.3"/><path d="M52,7A5,5,0,0,0,42,7a5.567,5.567,0,0,0,2.25,4.25c-2,17.25-15.75,31.25-33,33A5.568,5.568,0,0,0,7,42a5,5,0,1,0,4.5,7.25A42.322,42.322,0,0,0,49.25,11.5,4.979,4.979,0,0,0,52,7Z" transform="translate(107 1691.651)" fill="#0a034d"/></g></svg>