<svg xmlns="http://www.w3.org/2000/svg" width="84.051" height="86.876" viewBox="0 0 84.051 86.876"><g transform="translate(-0.509 -0.094)"><path d="M62.435,86.971,30.155,55.642l-19.1,14.542L.509,64.895.517,22.219,11.093,16.9,30.211,31.452,62.411.094,84.553,8.97l.008,69.159L62.435,86.971" transform="translate(0 0)" fill="#fff"/><path d="M90.346,26.094l-15.24-6.109L42.055,52.17,21.88,36.811l-4.365,2.2-.007,35.765,4.328,2.171L41.994,61.6,75.125,93.754l15.227-6.085-.007-61.575ZM24.051,65.28,24.04,48.494l9.338,8.336-9.327,8.45Zm29.875-8.456L72.6,42.868,72.6,70.89,53.927,56.824Z" transform="translate(-11.396 -13.334)" fill="#2c84d5"/></g></svg>