<svg xmlns="http://www.w3.org/2000/svg" width="77.822" height="77.822" viewBox="0 0 77.822 77.822"><path d="M16.426,33.324,32.351,76.942A33.386,33.386,0,0,1,16.426,33.324ZM69.442,45.232a17.6,17.6,0,0,0-2.746-9.21c-1.695-2.746-3.279-5.084-3.279-7.829a5.777,5.777,0,0,1,5.6-5.931c.141,0,.282.016.439.031A33.376,33.376,0,0,0,19.014,28.57c.785.031,1.522.047,2.15.047,3.483,0,8.9-.424,8.9-.424a1.377,1.377,0,0,1,.22,2.746s-1.8.2-3.813.314L38.627,67.4l7.312-21.9L40.745,31.253c-1.8-.11-3.5-.314-3.5-.314a1.377,1.377,0,0,1,.2-2.746s5.507.424,8.786.424c3.483,0,8.9-.424,8.9-.424a1.377,1.377,0,0,1,.22,2.746s-1.8.2-3.813.314L63.605,67.136l3.326-11.124c1.412-4.613,2.51-7.923,2.51-10.779Zm-21.95,4.6-10.01,29.1A33.259,33.259,0,0,0,57.988,78.4a2.5,2.5,0,0,1-.235-.455ZM76.2,30.892a26.006,26.006,0,0,1,.22,3.436,31.358,31.358,0,0,1-2.542,11.956l-10.2,29.482A33.412,33.412,0,0,0,76.2,30.892Zm9.618,16.019A38.911,38.911,0,1,1,46.911,8,38.955,38.955,0,0,1,85.822,46.911Zm-1.789,0A37.123,37.123,0,1,0,46.911,84.034,37.167,37.167,0,0,0,84.034,46.911Z" transform="translate(-8 -8)" fill="#3680a7"/></svg>