<svg version="1.2" xmlns="http://www.w3.org/2000/svg" viewBox="0 0 95 95" width="95" height="95">
	<title>New Project</title>
	<style>
		.s0 { fill: #d5e0d5 } 
	</style>
	<path id="wordpress-brands" fill-rule="evenodd" class="s0" d="m86.2 47c0 21.5-17.5 38.9-39 38.9c-21.4 0-38.9-17.5-38.9-38.9c0-21.5 17.5-38.9 38.9-38.9c21.5 0 39 17.4 39 38.9zm-1.8 0c0-20.5-16.7-37.1-37.2-37.1c-20.4 0-37.1 16.6-37.1 37.1c0 20.5 16.7 37.1 37.1 37.1c20.5 0 37.2-16.6 37.2-37.1zm-26.3 31q0.1 0.3 0.2 0.5c-3.4 1.2-7.2 1.9-11.1 1.9c-3.2 0-6.4-0.5-9.4-1.4l10-29.1zm22.6-31c0 12.3-6.7 23-16.6 28.8l10.2-29.4c1.9-4.8 2.5-8.6 2.5-12q0-1.8-0.2-3.4c2.6 4.7 4.1 10.2 4.1 16zm-63.9-13.6l15.9 43.6c-11.1-5.4-18.8-16.8-18.8-30c0-4.9 1.1-9.4 2.9-13.6zm50.5 22.7l-3.3 11.1l-12.1-35.9c2-0.1 3.8-0.3 3.8-0.3c1.8-0.2 1.6-2.8-0.2-2.7c0 0-5.4 0.4-8.9 0.4c-3.3 0-8.8-0.4-8.8-0.4c-1.8-0.1-2 2.6-0.2 2.7c0 0 1.7 0.2 3.5 0.3l5.2 14.3l-7.3 21.9l-12.2-36.2c2.1-0.1 3.9-0.3 3.9-0.3c1.7-0.2 1.5-2.8-0.3-2.7c0 0-5.4 0.4-8.9 0.4q-0.9 0-2.1-0.1c6-9 16.2-15 27.9-15c8.7 0 16.6 3.3 22.5 8.8q-0.2-0.1-0.4-0.1c-3.3 0-5.6 2.9-5.6 6c0 2.7 1.6 5 3.3 7.8c1.2 2.2 2.7 5.1 2.7 9.2c0 2.9-1.1 6.2-2.5 10.8z" />
</svg>